<?xml version="1.0" encoding="iso-8859-1"?>
<!-- Generator: Adobe Illustrator 15.0.0, SVG Export Plug-In . SVG Version: 6.00 Build 0)  -->
<!DOCTYPE svg PUBLIC "-//W3C//DTD SVG 1.1//EN" "http://www.w3.org/Graphics/SVG/1.1/DTD/svg11.dtd" [
<!ENTITY st0 "fill-rule:evenodd;clip-rule:evenodd;fill:#D6E0CA;">
<!ENTITY st1 "font-size:11.9525;">
<!ENTITY st2 "fill-rule:evenodd;clip-rule:evenodd;fill:#B4C69B;">
<!ENTITY st3 "font-family:'Arial-BoldMT';">
<!ENTITY st4 "font-size:18.0006;">
<!ENTITY st5 "font-size:9.936;">
<!ENTITY st6 "fill-rule:evenodd;clip-rule:evenodd;fill:#565649;">
<!ENTITY st7 "fill-rule:evenodd;clip-rule:evenodd;fill:#598F67;">
<!ENTITY st8 "fill-rule:evenodd;clip-rule:evenodd;fill:#8DA07A;">
<!ENTITY st9 "opacity:0.4;">
<!ENTITY st10 "font-size:11.952;">
<!ENTITY st11 "fill:#FFFFFF;">
<!ENTITY st12 "font-size:15.552;">
<!ENTITY st13 "fill-rule:evenodd;clip-rule:evenodd;fill:#273D2C;">
<!ENTITY st14 "font-family:'ArialMT';">
<!ENTITY st15 "fill-rule:evenodd;clip-rule:evenodd;fill:#FFFFFF;">
<!ENTITY st16 "font-size:12;">
<!ENTITY st17 "font-size:18;">
<!ENTITY st18 "fill-rule:evenodd;clip-rule:evenodd;fill:#FCD783;stroke:#FCD783;stroke-width:2.0001;stroke-miterlimit:10;">
]>
<svg xmlns="http://www.w3.org/2000/svg" xmlns:xlink="http://www.w3.org/1999/xlink" version="1.1" id="Ebene_1" x="0px" y="0px" width="842px" height="595px" viewBox="0 0 842 595" style="enable-background:new 0 0 842 595;" xml:space="preserve">
<polygon style="&st6;" points="274.216,86.168 374.008,43.112 379.552,58.52 470.56,57.296 492.089,36.92 598.648,77.6   618.305,60.968 667.624,223.472 622.624,236.432 624.496,312.68 589.432,378.56 607.864,398.288 573.376,421.688 579.568,438.32   522.256,478.928 527.225,505.424 357.952,506 361.048,489.368 268.096,433.352 285.304,401.384 239.152,333.632 216.4,332.408   216.976,241.328 193,226.568 260.104,71.408 "/>
<polygon style="&st18;" points="431.64,181.072 486.72,207.568 486.144,278.992 431.64,304.191 375.984,278.992 377.208,206.344 "/>
<polygon style="&st8;" points="436.607,155.8 436.607,166.456 473.256,183.952 477.647,174.952 "/>
<polygon style="&st8;" points="423.936,156.592 423.936,167.248 387.36,184.672 382.968,175.672 "/>
<polygon style="&st8;" points="500.544,186.04 493.272,193.096 481.248,187.408 485.496,179.056 "/>
<polygon style="&st8;" points="360,186.76 367.272,193.816 379.296,188.2 375.048,179.776 "/>
<polygon style="&st0;" points="385.92,96.688 390.744,105.112 339.048,129.232 334.08,120.736 "/>
<polygon style="&st0;" points="380.52,87.328 385.056,95.248 333.144,119.44 328.752,111.448 "/>
<polygon style="&st0;" points="374.976,77.824 379.584,85.816 327.816,109.936 323.208,102.016 "/>
<polygon style="&st0;" points="369.864,68.464 374.04,76.24 322.488,100.72 317.808,92.584 "/>
<polygon style="&st0;" points="476.784,99.208 471.889,107.56 523.08,131.464 529.2,124.336 "/>
<polygon style="&st0;" points="482.111,90.136 477.576,97.984 530.353,123.04 536.616,115.768 "/>
<polygon style="&st0;" points="487.584,81.064 482.977,89.056 537.624,114.616 543.672,107.632 "/>
<polygon style="&st0;" points="492.769,71.848 488.52,79.696 544.752,106.336 551.088,98.992 "/>
<polygon style="&st0;" points="498.023,62.632 493.775,70.48 551.952,97.984 554.04,88.12 "/>
<polygon style="&st0;" points="504.36,53.488 499.968,61.264 554.4,86.464 556.2,77.896 "/>
<path style="&st8;" d="M436.607,143.92v10.008l41.688,19.944l3.888-8.208L436.607,143.92L436.607,143.92z M486,177.472l16.272,7.776  l4.535-7.848l-16.919-8.064L486,177.472L486,177.472z M436.607,131.896l50.257,23.976l-3.961,8.208l-46.296-22.104V131.896  L436.607,131.896z M490.607,167.752l3.889-8.28l17.712,8.496l-4.536,7.92L490.607,167.752z"/>
<path style="&st8;" d="M423.864,144.64v10.008l-41.616,19.944l-3.888-8.208L423.864,144.64L423.864,144.64z M374.544,178.264  l-16.2,7.704l-4.536-7.848l16.92-8.064L374.544,178.264L374.544,178.264z M423.864,132.616l-50.112,23.976l3.888,8.208  l46.224-22.104V132.616L423.864,132.616z M369.936,168.472l-3.888-8.208l-17.712,8.424l4.536,7.92L369.936,168.472z"/>
<polygon style="&st8;" points="448.272,125.488 444.023,133.264 513.216,166.24 517.68,158.608 "/>
<polygon style="&st8;" points="412.272,126.208 416.52,133.984 347.328,166.96 342.936,159.328 "/>
<polygon style="&st2;" points="266.112,106.696 275.76,108.352 247.752,156.232 242.856,144.496 "/>
<polygon style="&st2;" points="277.992,108.64 286.776,110.296 257.328,160.48 248.976,156.808 "/>
<polygon style="&st2;" points="288.432,110.512 298.584,112.24 268.272,165.304 258.48,160.984 "/>
<polygon style="&st2;" points="300.096,112.456 309.888,114.184 277.848,169.48 269.568,165.88 "/>
<polygon style="&st2;" points="311.76,114.472 317.448,123.976 288,173.656 279.576,170.2 "/>
<polygon style="&st2;" points="593.784,105.976 583.057,106.84 610.992,153.712 614.88,142.264 "/>
<polygon style="&st2;" points="580.752,107.272 571.464,108.136 602.064,158.752 610.416,155.08 "/>
<polygon style="&st2;" points="569.88,109 562.319,113.392 591.12,163.576 600.12,159.256 "/>
<polygon style="&st2;" points="560.809,113.896 552.023,118.648 581.256,167.824 589.319,164.152 "/>
<polygon style="&st2;" points="549.936,119.728 542.809,123.976 571.393,173.152 579.168,168.904 "/>
<polygon style="&st2;" points="230.472,217.144 239.328,220.96 243.864,162.136 233.928,166.096 "/>
<polygon style="&st2;" points="241.272,221.824 249.48,225.352 254.232,165.52 245.952,161.848 "/>
<polygon style="&st2;" points="250.92,226 260.28,230.032 265.896,170.128 255.888,166.24 "/>
<polygon style="&st2;" points="261.936,230.752 270.936,234.64 276.336,175.024 267.264,171.136 "/>
<polygon style="&st2;" points="272.808,234.784 282.384,232.192 287.064,179.704 278.208,175.888 "/>
<polygon style="&st2;" points="628.344,216.136 619.848,221.248 614.952,161.776 624.889,170.56 "/>
<polygon style="&st2;" points="618.191,222.328 609.48,227.872 604.152,165.736 613.368,161.056 "/>
<polygon style="&st2;" points="607.896,227.872 598.536,227.872 593.712,170.416 602.424,166.024 "/>
<polygon style="&st2;" points="597.096,227.872 588.096,227.872 583.2,175.24 591.912,171.136 "/>
<polygon style="&st2;" points="586.224,227.872 576.864,227.872 572.473,179.56 581.544,175.888 "/>
<path style="&st0;" d="M406.584,107.272c8.208,0,16.344,0,24.552,0c8.137,0,16.345,0,24.624,0c-0.72,2.952-1.367,5.976-2.088,9  c-7.561,0-15.12,0-22.68,0c-7.632,0-15.12,0-22.68,0C407.736,113.248,407.16,110.224,406.584,107.272z"/>
<path style="&st0;" d="M404.496,96.328c8.928,0,17.783,0,26.783,0c8.929,0,17.929,0,26.856,0c-0.647,3.024-1.296,6.048-2.016,9.072  c-8.352,0-16.632,0-24.984,0c-8.352,0-16.632,0-24.912,0C405.648,102.376,405.072,99.352,404.496,96.328z"/>
<path style="&st0;" d="M402.336,85.456c9.72,0,19.368,0,29.088,0s19.44,0,29.16,0c-0.648,3.024-1.296,6.048-2.016,9.072  c-9.072,0-18.145,0-27.289,0c-9.071,0-18.071,0-27.144,0C403.56,91.504,402.984,88.48,402.336,85.456z"/>
<path style="&st0;" d="M400.248,74.584c10.512,0,20.88,0,31.392,0c10.44,0,20.952,0,31.393,0c-0.648,3.024-1.297,6.048-2.017,9  c-9.863,0-19.728,0-29.52,0c-9.864,0-19.656,0-29.52,0C401.4,80.632,400.824,77.608,400.248,74.584z"/>
<polygon style="&st13;" points="425.592,386.488 425.592,376.336 370.44,350.2 370.368,350.128 366.624,348.111 331.416,331.48   330.048,341.2 425.592,386.488 "/>
<polygon style="&st13;" points="425.592,374.896 371.16,348.616 375.552,340.48 425.592,364.744 425.592,374.896 "/>
<polygon style="&st13;" points="366.984,336.305 362.448,344.439 331.56,330.04 332.784,319.744 366.984,336.305 "/>
<polygon style="&st13;" points="425.592,363.231 376.272,339.185 380.52,331.408 425.592,353.152 425.592,363.231 "/>
<polygon style="&st13;" points="371.952,327.305 367.704,335.008 334.224,318.664 341.712,312.76 371.952,327.305 "/>
<polygon style="&st13;" points="425.592,351.64 381.312,329.968 385.632,321.977 425.592,341.561 425.592,351.64 "/>
<polygon style="&st13;" points="377.208,317.872 351.288,305.2 343.368,311.464 372.816,325.792 377.208,317.872 "/>
<polygon style="&st13;" points="425.592,340.192 386.208,320.896 390.456,313.191 425.592,330.185 425.592,340.192 "/>
<polygon style="&st13;" points="382.032,309.16 359.856,298.432 352.368,304.336 377.784,316.792 382.032,309.16 "/>
<polygon style="&st13;" points="425.592,328.312 425.592,317.656 395.784,303.4 391.176,311.896 425.592,328.312 "/>
<polygon style="&st13;" points="387.432,299.439 382.752,307.864 361.08,297.496 369.504,290.944 387.432,299.439 "/>
<polygon style="&st13;" points="436.176,386.344 436.176,376.265 491.4,350.057 491.473,349.984 495.144,347.968 530.424,331.336   531.792,341.057 436.176,386.344 "/>
<polygon style="&st13;" points="436.176,374.752 490.68,348.544 486.288,340.336 436.176,364.672 436.176,374.752 "/>
<polygon style="&st13;" points="494.856,336.231 499.393,344.368 530.279,329.896 529.057,319.6 494.856,336.231 "/>
<polygon style="&st13;" points="436.176,363.16 485.568,339.04 481.319,331.336 436.176,353.08 436.176,363.16 "/>
<polygon style="&st13;" points="489.889,327.231 494.136,334.864 527.616,318.52 520.128,312.616 489.889,327.231 "/>
<polygon style="&st13;" points="436.176,351.568 480.527,329.896 476.208,321.904 436.176,341.488 436.176,351.568 "/>
<polygon style="&st13;" points="484.632,317.8 510.552,305.128 518.473,311.319 489.023,325.721 484.632,317.8 "/>
<polygon style="&st13;" points="436.176,340.12 475.632,320.824 471.384,313.12 436.176,330.111 436.176,340.12 "/>
<polygon style="&st13;" points="479.808,309.016 501.984,298.36 509.473,304.265 484.057,316.647 479.808,309.016 "/>
<polygon style="&st13;" points="436.176,328.24 436.176,317.512 466.057,303.328 470.664,311.752 436.176,328.24 "/>
<polygon style="&st13;" points="474.408,299.296 479.088,307.721 500.76,297.424 492.336,290.8 474.408,299.296 "/>
<polygon style="&st7;" points="369.288,397.936 314.424,363.305 318.672,355.384 373.32,389.728 369.288,397.936 "/>
<polygon style="&st7;" points="364.032,407.512 309.312,372.88 313.344,364.815 368.208,399.16 364.032,407.512 "/>
<polygon style="&st7;" points="358.92,417.305 304.272,382.527 308.232,374.464 363.168,408.735 358.92,417.305 "/>
<polygon style="&st7;" points="355.608,426.809 299.16,391.023 303.12,383.104 359.64,418.672 355.608,426.809 "/>
<polygon style="&st7;" points="498.815,407.08 548.496,375.76 543.24,368.488 494.64,398.728 498.815,407.08 "/>
<polygon style="&st7;" points="504,417.088 554.977,384.616 549.504,377.128 499.752,408.52 504,417.088 "/>
<polygon style="&st7;" points="493.632,397.72 542.231,367.12 536.977,359.848 489.6,389.439 493.632,397.72 "/>
<polygon style="&st7;" points="350.424,436.456 354.456,428.393 297.936,392.681 294.048,400.527 350.424,436.456 "/>
<polygon style="&st7;" points="345.384,446.176 349.632,437.681 292.896,402.473 288.936,410.319 345.384,446.176 "/>
<polygon style="&st13;" points="436.176,476.2 436.176,466.48 494.496,444.231 497.735,453.52 436.176,476.2 "/>
<polygon style="&st13;" points="436.176,465.111 493.992,442.792 491.184,434.656 436.176,455.681 436.176,465.111 "/>
<polygon style="&st13;" points="436.176,454.168 490.536,432.712 487.512,424.072 436.176,444.376 436.176,454.168 "/>
<polygon style="&st13;" points="436.176,442.792 436.176,432.353 484.704,414.784 487.008,422.776 436.176,442.792 "/>
<polygon style="&st13;" points="436.176,430.84 436.176,421.552 480.672,404.488 483.769,413.416 436.176,430.84 "/>
<polygon style="&st13;" points="436.176,419.896 480.24,403.265 477.288,394.769 436.176,410.464 436.176,419.896 "/>
<polygon style="&st13;" points="425.592,476.2 425.592,466.48 367.344,444.231 364.104,453.52 425.592,476.2 "/>
<polygon style="&st13;" points="425.592,465.111 367.848,442.792 370.656,434.656 425.592,455.681 425.592,465.111 "/>
<polygon style="&st13;" points="425.592,454.168 371.376,432.712 374.328,424.072 425.592,444.376 425.592,454.168 "/>
<polygon style="&st13;" points="425.592,442.792 425.592,432.353 377.136,414.784 374.832,422.776 425.592,442.792 "/>
<polygon style="&st13;" points="425.592,430.84 425.592,421.552 381.168,404.488 378.072,413.416 425.592,430.84 "/>
<polygon style="&st13;" points="425.592,419.896 381.6,403.265 384.552,394.769 425.592,410.464 "/>
<path style="&st15;" d="M277.629,150.669c5.888,0,10.693-4.746,10.693-10.633c0-5.827-4.806-10.633-10.693-10.633  c-5.827,0-10.633,4.806-10.633,10.633C266.996,145.923,271.802,150.669,277.629,150.669z"/>
<polygon style="&st2;" points="522.359,459.353 517.536,451.504 540.576,437.393 544.896,444.809 "/>
<polygon style="&st7;" points="508.607,426.16 504.504,417.952 555.84,385.84 561.096,392.968 "/>
<polygon style="&st7;" points="239.4,245.872 230.112,245.08 235.08,302.248 243.936,299.584 "/>
<polygon style="&st7;" points="249.624,246.736 241.128,246.016 245.376,299.225 252.504,297.64 "/>
<polygon style="&st7;" points="261,247.672 250.848,246.808 254.52,297.784 264.456,298.288 "/>
<polygon style="&st7;" points="271.512,248.824 262.44,247.816 265.752,298.144 275.112,298.721 "/>
<polygon style="&st7;" points="283.608,249.616 273.096,248.68 276.696,298.576 287.28,298.936 "/>
<polygon style="&st13;" points="316.08,202.888 326.376,187.624 318.672,182.584 307.944,197.704 "/>
<polygon style="&st13;" points="313.056,209.152 327.672,188.344 335.736,193.24 322.056,212.824 321.984,237.736 312.984,237.736   "/>
<polygon style="&st13;" points="323.784,213.112 331.416,203.176 339.12,207.784 332.568,216.352 332.568,237.736 323.784,237.736   "/>
<polygon style="&st13;" points="345.312,221.104 350.064,214.336 357.768,219.016 354.168,224.344 354.168,237.736 345.312,237.736   "/>
<polygon style="&st13;" points="334.584,217.144 340.776,208.792 348.264,213.256 343.368,220.384 343.368,237.736 334.584,237.736   "/>
<polygon style="&st13;" points="301.032,210.88 311.112,210.88 311.04,307.936 301.032,298.864 "/>
<polygon style="&st13;" points="321.912,251.272 321.768,302.176 312.984,306.568 312.984,251.272 "/>
<polygon style="&st13;" points="332.568,251.272 332.568,296.848 323.712,301.24 323.784,251.272 "/>
<polygon style="&st13;" points="343.368,251.272 343.368,291.52 334.584,295.912 334.584,251.272 "/>
<polygon style="&st13;" points="354.168,251.272 354.168,286.12 345.384,290.512 345.384,251.272 "/>
<polygon style="&st13;" points="356.184,251.344 364.752,251.344 364.752,280.864 356.184,285.112 "/>
<polygon style="&st13;" points="507.168,251.056 498.6,250.984 498.6,280.504 507.168,284.824 "/>
<polygon style="&st13;" points="562.248,210.52 552.24,210.592 552.312,307.576 562.248,298.504 "/>
<polygon style="&st13;" points="547.92,202.888 537.624,187.624 545.328,182.584 555.984,197.704 "/>
<polygon style="&st13;" points="550.296,208.792 535.607,188.056 527.544,192.952 541.224,212.464 541.296,237.448 550.296,237.448   "/>
<polygon style="&st13;" points="539.496,212.824 531.864,202.816 524.16,207.424 530.712,216.064 530.712,237.448 539.496,237.448   "/>
<polygon style="&st13;" points="517.968,220.744 513.216,214.048 505.512,218.656 509.111,224.056 509.111,237.448 517.968,237.448   "/>
<polygon style="&st13;" points="528.695,216.784 522.504,208.432 515.016,212.968 519.912,220.024 519.912,237.448 528.695,237.448   "/>
<path style="&st7;" d="M596.231,245.944c1.657-0.072,3.241-0.144,4.896-0.216c1.656-0.072,3.24-0.216,4.896-0.288  c-0.575,9.288-1.224,18.576-1.8,27.864c-0.576,9.288-1.224,18.576-1.8,27.792c-1.584,0.071-3.168,0.144-4.752,0.287  c-1.656,0.072-3.24,0.144-4.824,0.216c0.576-9.216,1.152-18.503,1.729-27.792S595.656,255.232,596.231,245.944z"/>
<path style="&st7;" d="M586.224,246.736c2.88-0.216,5.761-0.432,8.641-0.72c-0.505,9.216-1.08,18.504-1.656,27.72  c-0.504,9.288-1.08,18.576-1.584,27.792c-1.513,0.072-3.024,0.217-4.536,0.289c-1.512,0.144-2.952,0.216-4.464,0.359  c0.576-9.216,1.151-18.504,1.8-27.72C585,265.24,585.576,256.024,586.224,246.736z"/>
<path style="&st7;" d="M574.561,247.096c1.728-0.144,3.383-0.216,5.039-0.288c1.656-0.072,3.385-0.144,5.04-0.288  c-0.575,9.216-1.224,18.504-1.8,27.72c-0.576,9.216-1.224,18.504-1.8,27.72c-1.656,0.072-3.384,0.144-5.04,0.216  c-1.728,0.072-3.384,0.144-5.111,0.217c0.647-9.217,1.223-18.433,1.871-27.648C573.336,265.528,573.984,256.312,574.561,247.096z"/>
<polygon style="&st13;" points="516.527,449.128 512.568,442.072 552.744,415.864 557.712,423.568 "/>
<polygon style="&st8;" points="551.735,345.016 545.04,338.464 562.104,311.032 571.104,313.336 "/>
<polygon style="&st8;" points="559.224,352.936 552.672,345.88 572.688,313.769 581.832,316.144 "/>
<polygon style="&st8;" points="567.432,360.28 560.52,353.584 583.775,316.647 592.561,318.88 "/>
<polygon style="&st8;" points="575.279,367.912 568.584,361.36 594.072,319.312 603.72,321.832 "/>
<polygon style="&st8;" points="284.976,367.912 291.672,361.36 266.184,319.312 256.536,321.832 "/>
<polygon style="&st8;" points="292.824,360.28 299.736,353.584 276.48,316.647 267.696,318.88 "/>
<polygon style="&st8;" points="301.032,352.936 307.584,345.88 287.568,313.769 278.424,316.144 "/>
<polygon style="&st8;" points="308.52,345.016 315.216,338.464 298.152,311.032 289.152,313.336 "/>
<polygon style="&st13;" points="541.368,250.912 541.512,301.889 550.296,306.208 550.296,250.912 "/>
<polygon style="&st13;" points="530.712,250.912 530.712,296.56 539.568,300.88 539.496,250.912 "/>
<polygon style="&st13;" points="519.912,250.912 519.912,291.16 528.695,295.552 528.695,250.912 "/>
<polygon style="&st13;" points="509.111,250.912 509.111,285.76 517.968,290.152 517.968,250.912 "/>
<path style="&st15;" d="M428.323,104.24c5.827,0,10.634-4.806,10.634-10.693c0-5.828-4.807-10.633-10.634-10.633  s-10.573,4.806-10.573,10.633C417.75,99.434,422.496,104.24,428.323,104.24z"/>
<path style="&st15;" d="M508.957,107.102c5.888,0,10.693-4.806,10.693-10.634c0-5.887-4.806-10.693-10.693-10.693  c-5.827,0-10.633,4.806-10.633,10.693C498.324,102.295,503.13,107.102,508.957,107.102z"/>
<path style="&st15;" d="M577.025,150.884c5.827,0,10.633-4.746,10.633-10.634c0-5.827-4.806-10.633-10.633-10.633  c-5.889,0-10.635,4.806-10.635,10.633C566.391,146.138,571.137,150.884,577.025,150.884z"/>
<path style="&st15;" d="M601.789,209.167c5.827,0,10.633-4.746,10.633-10.634c0-5.827-4.806-10.633-10.633-10.633  c-5.888,0-10.693,4.806-10.693,10.633C591.096,204.421,595.901,209.167,601.789,209.167z"/>
<path style="&st15;" d="M392.382,171.262c5.827,0,10.633-4.746,10.633-10.633c0-5.887-4.806-10.633-10.633-10.633  c-5.888,0-10.634,4.746-10.634,10.633C381.749,166.516,386.495,171.262,392.382,171.262z"/>
<path style="&st15;" d="M461.035,170.506c5.888,0,10.634-4.807,10.634-10.634c0-5.888-4.746-10.633-10.634-10.633  c-5.887,0-10.633,4.745-10.633,10.633C450.402,165.699,455.148,170.506,461.035,170.506z"/>
<path style="&st15;" d="M589.543,281.069c5.888,0,10.693-4.806,10.693-10.633c0-5.887-4.806-10.633-10.693-10.633  c-5.826,0-10.633,4.746-10.633,10.633C578.91,276.263,583.717,281.069,589.543,281.069z"/>
<path style="&st15;" d="M530.283,281.165c5.889,0,10.634-4.806,10.634-10.633c0-5.888-4.745-10.634-10.634-10.634  c-5.827,0-10.633,4.746-10.633,10.634C519.65,276.359,524.456,281.165,530.283,281.165z"/>
<path style="&st15;" d="M334.208,280.675c5.888,0,10.693-4.806,10.693-10.693c0-5.828-4.806-10.633-10.693-10.633  c-5.827,0-10.633,4.806-10.633,10.633C323.575,275.869,328.381,280.675,334.208,280.675z"/>
<path style="&st15;" d="M281.304,353.235c5.828,0,10.634-4.746,10.634-10.633c0-5.827-4.806-10.634-10.634-10.634  c-5.887,0-10.633,4.807-10.633,10.634C270.671,348.489,275.417,353.235,281.304,353.235z"/>
<path style="&st15;" d="M256.273,211.684c5.828,0,10.634-4.806,10.634-10.633c0-5.887-4.806-10.693-10.634-10.693  c-5.887,0-10.633,4.806-10.633,10.693C245.64,206.878,250.386,211.684,256.273,211.684z"/>
<path style="&st15;" d="M256.506,280.865c5.888,0,10.693-4.746,10.693-10.633c0-5.827-4.806-10.633-10.693-10.633  c-5.827,0-10.633,4.806-10.633,10.633C245.873,276.119,250.679,280.865,256.506,280.865z"/>
<path style="&st15;" d="M454.536,448.025c5.887,0,10.633-4.746,10.633-10.634c0-5.827-4.746-10.633-10.633-10.633  c-5.888,0-10.634,4.806-10.634,10.633C443.902,443.279,448.648,448.025,454.536,448.025z"/>
<path style="&st15;" d="M456.14,359.38c5.827,0,10.633-4.746,10.633-10.634c0-5.827-4.806-10.633-10.633-10.633  c-5.888,0-10.634,4.806-10.634,10.633C445.506,354.634,450.252,359.38,456.14,359.38z"/>
<path style="&st15;" d="M524.303,405.078c5.888,0,10.635-4.746,10.635-10.634s-4.747-10.633-10.635-10.633  c-5.826,0-10.633,4.745-10.633,10.633S518.477,405.078,524.303,405.078z"/>
<path style="&st15;" d="M405.254,448.147c5.827,0,10.633-4.806,10.633-10.634c0-5.887-4.806-10.693-10.633-10.693  c-5.888,0-10.693,4.807-10.693,10.693C394.561,443.342,399.366,448.147,405.254,448.147z"/>
<path style="&st15;" d="M407.664,358.029c5.887,0,10.633-4.746,10.633-10.634c0-5.827-4.746-10.633-10.633-10.633  s-10.634,4.806-10.634,10.633C397.03,353.283,401.777,358.029,407.664,358.029z"/>
<path style="&st15;" d="M329.115,405.917c5.887,0,10.633-4.807,10.633-10.693c0-5.827-4.746-10.634-10.633-10.634  c-5.827,0-10.633,4.807-10.633,10.634C318.481,401.11,323.288,405.917,329.115,405.917z"/>
<g>
	<text transform="matrix(1 0 0 1 327.7026 276.4199)" style="&st3; &st17;">B</text>
</g>
<g>
	<text transform="matrix(1 0 0 1 524.0723 276.6162)" style="&st3; &st17;">B</text>
</g>
<g>
	<text transform="matrix(1 0 0 1 385.8823 167.2402)" style="&st3; &st17;">C</text>
</g>
<g>
	<text transform="matrix(1 0 0 1 454.5361 166.4844)" style="&st3; &st17;">C</text>
</g>
<g>
	<text transform="matrix(1 0 0 1 399.4482 444.0244)" style="&st3; &st17;">D</text>
</g>
<g>
	<text transform="matrix(1 0 0 1 448.6406 444.0234)" style="&st3; &st17;">D</text>
</g>
<g>
	<text transform="matrix(1 0 0 1 323.4746 401.8115)" style="&st3; &st17;">E</text>
</g>
<g>
	<text transform="matrix(1 0 0 1 518.0938 401.0557)" style="&st3; &st17;">E</text>
</g>
<g>
	<text transform="matrix(1 0 0 1 275.9199 349.6719)" style="&st3; &st17;">F</text>
</g>
<g>
	<text transform="matrix(1 0 0 1 251.7759 276.6475)" style="&st3; &st17;">F</text>
</g>
<g>
	<text transform="matrix(1 0 0 1 584.9004 276.8438)" style="&st3; &st17;">F</text>
</g>
<path style="&st15;" d="M351.51,107.321c5.888,0,10.693-4.746,10.693-10.633c0-5.827-4.806-10.633-10.693-10.633  c-5.827,0-10.633,4.806-10.633,10.633C340.876,102.575,345.683,107.321,351.51,107.321z"/>
<g>
	<text transform="matrix(1 0 0 1 248.2729 207.6318)" style="&st3; &st17;">G</text>
</g>
<g>
	<text transform="matrix(1 0 0 1 594.7588 205.1465)" style="&st3; &st17;">G</text>
</g>
<g>
	<text transform="matrix(1 0 0 1 270.6582 145.6475)" style="&st3; &st17;">G</text>
</g>
<g>
	<text transform="matrix(1 0 0 1 570.0234 146.8623)" style="&st3; &st17;">G</text>
</g>
<g>
	<text transform="matrix(0.9998 0.0216 -0.0216 0.9998 502.6748 102.8813)" style="&st3; &st4;">H</text>
</g>
<g>
	<text transform="matrix(1 0 0 1 421.8545 100.1885)" style="&st3; &st17;">H</text>
</g>
<g>
	<text transform="matrix(1 0 0 1 345.2041 103.2998)" style="&st3; &st17;">H</text>
</g>
<g>
	<text transform="matrix(1 0 0 1 382.1758 239.8242)" style="&st14; &st12;">ORCHESTER</text>
</g>
<g>
	<text transform="matrix(1 0 0 1 399.96 257.248)" style="&st14; &st12;">PODIUM</text>
</g>
<g style="&st9;">
	<g style="&st9;">
		<text transform="matrix(1 0 0 1 407.6641 69.5439)" style="&st14; &st10;">Empore</text>
	</g>
</g>
<text transform="matrix(1 0 0 1 407.6641 68.6963)" style="&st11; &st14; &st10;">Empore</text>
<g>
	<text transform="matrix(1 0 0 1 449.6484 354.0078)" style="&st3; &st17;">A</text>
</g>
<g>
	<text transform="matrix(1 0 0 1 401.104 353.2881)" style="&st3; &st17;">A</text>
</g>
<g style="&st9;">
	<g style="&st9;">
		<text transform="matrix(0.8579 0.5139 -0.5139 0.8579 320.7598 458.2012)" style="&st14; &st1;">Loge</text>
	</g>
</g>
<text transform="matrix(0.8579 0.5139 -0.5139 0.8579 310 452)" style="&st11; &st14; &st10;">Loge</text>
<polygon style="&st13;" points="353.592,457.265 349.416,464.032 308.304,439.265 312.768,431.92 "/>
<g style="&st9;">
	<g style="&st9;">
		<text transform="matrix(1 0 0 1 311.1118 350.7041)" style="&st14; &st5;">1</text>
	</g>
</g>
<text transform="matrix(1 0 0 1 311.1118 349.998)" style="&st11; &st14; &st5;">1</text>
<text transform="matrix(1 0 0 1 386 309)" style="&st11; &st14; &st5;">1</text>
<text transform="matrix(1 0 0 1 469 309)" style="&st11; &st14; &st5;">1</text>
<text transform="matrix(1 0 0 1 573 311)" style="&st11; &st14; &st5;">1</text>
<text transform="matrix(1 0 0 1 501 248)" style="&st11; &st14; &st5;">1</text>
<text transform="matrix(1 0 0 1 578 241)" style="&st11; &st14; &st5;">1</text>
<text transform="matrix(1 0 0 1 460 116)" style="&st11; &st14; &st5;">1</text>
<text transform="matrix(1 0 0 1 398 116)" style="&st11; &st14; &st5;">1</text>
<text transform="matrix(1 0 0 1 328 132)" style="&st11; &st14; &st5;">1</text>
<text transform="matrix(1 0 0 1 313 102)" style="&st11; &st14; &st5;">4</text>
<text transform="matrix(1 0 0 1 416 131)" style="&st11; &st14; &st5;">4</text>
<text transform="matrix(1 0 0 1 438 131)" style="&st11; &st14; &st5;">4</text>
<text transform="matrix(1 0 0 1 378 186)" style="&st11; &st14; &st5;">1</text>
<text transform="matrix(1 0 0 1 369 167)" style="&st11; &st14; &st5;">3</text>
<text transform="matrix(1 0 0 1 357 248)" style="&st11; &st14; &st5;">1</text>
<text transform="matrix(1 0 0 1 476 185)" style="&st11; &st14; &st5;">1</text>
<text transform="matrix(1 0 0 1 281 309)" style="&st11; &st14; &st5;">1</text>
<text transform="matrix(1 0 0 1 275 243)" style="&st11; &st14; &st5;">1</text>
<g>
	<text transform="matrix(1 0 0 1 566.208 372.9521)" style="&st14; &st5;">4</text>
</g>
<g style="&st9;">
	<g style="&st9;">
		<text transform="matrix(1 0 0 1 288.5039 372.9521)" style="&st14; &st5;">4</text>
	</g>
</g>
<text transform="matrix(1 0 0 1 289 374)" style="&st11; &st14; &st16;">4</text>
<text transform="matrix(1 0 0 1 238 311)" style="&st11; &st14; &st16;">5</text>
<text transform="matrix(1 0 0 1 231 230)" style="&st11; &st14; &st16;">5</text>
<text transform="matrix(1 0 0 1 314 248)" style="&st11; &st14; &st16;">5</text>
<text transform="matrix(1 0 0 1 366 346)" style="&st11; &st14; &st16;">5</text>
<text transform="matrix(1 0 0 1 354 444)" style="&st11; &st14; &st16;">5</text>
<text transform="matrix(1 0 0 1 501 442)" style="&st11; &st14; &st16;">5</text>
<text transform="matrix(1 0 0 1 565 375)" style="&st11; &st14; &st16;">4</text>
<text transform="matrix(1 0 0 1 482 334)" style="&st11; &st14; &st16;">5</text>
<text transform="matrix(1 0 0 1 543 249)" style="&st11; &st14; &st16;">5</text>
<text transform="matrix(1 0 0 1 613 235)" style="&st11; &st14; &st16;">5</text>
<text transform="matrix(1 0 0 1 556 99)" style="&st11; &st14; &st16;">5</text>
<g style="&st9;">
	<g style="&st9;">
		<text transform="matrix(1 0 0 1 369.2881 165.5918)" style="&st14; &st5;">3</text>
	</g>
</g>
<text transform="matrix(0.5446 0.8387 -0.8387 0.5446 249.3311 336.7363)" style="&st11; &st14; &st10;">Empore</text>
<text transform="matrix(0.5 -0.866 0.866 0.5 588.7441 369.5967)" style="&st11; &st14; &st10;">Empore</text>
<text transform="matrix(0.8082 -0.5889 0.5889 0.8082 527.6162 470.1934)" style="&st11; &st14; &st10;">Loge</text>
<text transform="matrix(1 0 0 1 486 165)" style="&st11; &st14; &st5;">3</text>
</svg>
