<?xml version="1.0" encoding="iso-8859-1"?>
<!-- Generator: Adobe Illustrator 15.0.0, SVG Export Plug-In . SVG Version: 6.00 Build 0)  -->
<!DOCTYPE svg PUBLIC "-//W3C//DTD SVG 1.1//EN" "http://www.w3.org/Graphics/SVG/1.1/DTD/svg11.dtd">
<svg xmlns="http://www.w3.org/2000/svg" xmlns:xlink="http://www.w3.org/1999/xlink" version="1.1" x="0px" y="0px" width="842px" height="595px" viewBox="0 0 842 595" style="enable-background:new 0 0 842 595;" xml:space="preserve">
<style type="text/css">
<![CDATA[
]]>
</style>
<g id="Ebene_1">
	
		<polygon style="opacity:0.81;fill-rule:evenodd;clip-rule:evenodd;fill:#333413;stroke:#000000;stroke-width:0.216;stroke-miterlimit:10;" points="   457.932,16.476 269.985,55.508 150.665,196.198 196.843,299.542 177.091,342.146 195.764,380.572 170.08,405.986 268.907,565.351    390.183,542.564 511.525,565.755 606.509,417.312 584.601,366.685 663.137,234.759 564.242,168.626 565.253,72.766 458,49.509  "/>
	
		<polyline style="fill-rule:evenodd;clip-rule:evenodd;fill:none;stroke:#FECF3A;stroke-width:2.0001;stroke-linecap:round;stroke-linejoin:round;stroke-miterlimit:10;" points="   462.724,158.684 441.563,151.829 441.177,141.663 390.459,132.4 337.398,141.397 337.429,151.168 316.834,158.087  "/>
	
		<polyline style="fill-rule:evenodd;clip-rule:evenodd;fill:none;stroke:#FECF3A;stroke-width:2.0001;stroke-linecap:round;stroke-linejoin:round;stroke-miterlimit:10;" points="   310.127,257.073 357.922,268.736 357.99,275.342 389.135,283.836 420.279,275.342 420.415,268.736 469.355,257.073  "/>
	
		<polygon style="fill-rule:evenodd;clip-rule:evenodd;fill:#FFFFFF;stroke:#FECE37;stroke-width:2.0001;stroke-linecap:round;stroke-linejoin:round;stroke-miterlimit:10;" points="   389.54,277.229 415.83,270.219 415.897,264.691 457.154,254.916 438.414,159.527 390.459,150.796 340.732,159.527 321.992,254.916    363.248,264.691 363.316,270.219  "/>
	<path style="fill-rule:evenodd;clip-rule:evenodd;fill:none;stroke:#F39D47;stroke-width:2.0001;stroke-miterlimit:10;" d="   M489.175,119.618"/>
	
		<polyline style="fill-rule:evenodd;clip-rule:evenodd;fill:none;stroke:#FECF3A;stroke-width:2.0001;stroke-linecap:round;stroke-linejoin:round;stroke-miterlimit:10;" points="   249.928,333.249 303.723,346.867 304.262,361.967 388.259,382.056 472.56,362.689 472.857,346.445 527.938,333.654  "/>
	
		<polyline style="fill-rule:evenodd;clip-rule:evenodd;fill:none;stroke:#FECF3A;stroke-width:2.0001;stroke-linecap:round;stroke-linejoin:round;stroke-miterlimit:10;" points="   489.175,120.804 462.724,115.805 462.724,107.233 390.618,92.519 318.153,105.904 318.018,114.938 291.745,120.804  "/>
</g>
<g id="Ebene_2">
	<path style="fill-rule:evenodd;clip-rule:evenodd;fill:#8DA07A;" d="M299.745,491.12l-5.025,6.558l-62.118-98.982l4.517-7.078   L299.745,491.12z M226.805,361.08l-7.618-1.281l-8.426-22.516l5.691-3.979L226.805,361.08L226.805,361.08z M217.57,359.53   l-7.618-1.349l-5.932-15.976l5.595-4.112L217.57,359.53z M378.147,458.021l-84.468-20.09l1.82,6.876l80.894,19.213L378.147,458.021   L378.147,458.021z M306.352,432.875v6.404l-13.146-3.102l-1.752-6.876L306.352,432.875L306.352,432.875z M306.352,424.449   l-17.19-4.113l1.753,6.876l15.437,3.708V424.449z M251.141,410.831l5.46-4.18c-1.011-1.618-14.022-22.718-14.156-22.583   l-4.249,6.067L251.141,410.831z M478.524,492.737l5.325,6.809l61.75-99.164l-4.449-7.079L478.524,492.737L478.524,492.737z    M527.062,412.516l-5.393-4.179c1.011-1.618,14.021-22.786,14.156-22.583l4.247,5.999L527.062,412.516z M278.47,224.499   l3.303,7.551l29.562-60.529l-4.516-4.382L278.47,224.499z M300.891,161.403l-26.493,53.459l3.438,8.022l27.774-56.896   L300.891,161.403L300.891,161.403z M473.94,165.988l27.774,56.896l3.438-7.955l-26.494-53.526L473.94,165.988z M468.007,171.718   l29.662,60.537l3.235-7.551l-28.381-57.368L468.007,171.718z M398.438,458.021l84.468-20.09l-1.752,6.876L400.19,464.02   L398.438,458.021L398.438,458.021z M470.232,432.875v6.404l13.146-3.102l1.753-6.876L470.232,432.875L470.232,432.875z    M470.232,424.449l17.19-4.113l-1.752,6.876l-15.438,3.708V424.449z"/>
</g>
<g id="Ebene_3">
	<path style="fill-rule:evenodd;clip-rule:evenodd;fill:#D1E4BE;" d="M325.227,126.292v7.213l62.087-12.269v-7.281L325.227,126.292   L325.227,126.292z M325.16,117.866v7.213l62.155-12.336v-7.214L325.16,117.866L325.16,117.866z M325.093,109.373l62.222-12.27   v7.213l-62.222,12.336V109.373z M271.389,529.061l-60.358-97.995l4.583-6.809l60.951,97.936L271.389,529.061z M277.432,521.062   l-61.009-98.018l4.584-6.808l61.165,98.34L277.432,521.062z M343.497,516.073l-0.473,6.336l-29.46-7.077l-1.752-6.809   L343.497,516.073L343.497,516.073z M362.372,512.096l-1.753,6l-49.345-11.798l-1.821-6.875L362.372,512.096L362.372,512.096z    M364.664,504.208l-1.753,6l-53.997-12.876l-1.752-6.876L364.664,504.208L364.664,504.208z M366.956,496.456l-62.087-14.831   l1.82,6.876l58.514,13.955L366.956,496.456L366.956,496.456z M205.772,400.662l8.022,13.618l4.449-5.864l-8.022-13.685   L205.772,400.662z M200.177,408.01l8.022,13.617l4.517-5.865l-8.089-13.684L200.177,408.01z M482.054,131.796l-20.445-4.089v6.808   l16.333,3.153L482.054,131.796L482.054,131.796z M487.11,124.266l-4.469,6.157l-21.033-4.313v-7.011L487.11,124.266z    M456.009,126.292v7.213l-62.155-12.269v-7.281L456.009,126.292L456.009,126.292z M456.076,117.866v7.213l-62.222-12.336v-7.214   L456.076,117.866L456.076,117.866z M456.143,109.373l-62.29-12.27v7.213l62.29,12.336V109.373z M501.31,523.354l61.345-97.412   l4.584,6.809L506.5,530.297L501.31,523.354L501.31,523.354z M495.714,515.736l5.124,7.01l61.008-98.018l-4.583-6.809   L495.714,515.736L495.714,515.736z M433.088,516.073l31.684-7.55l-1.753,6.809l-29.458,7.077L433.088,516.073L433.088,516.073z    M414.212,512.096l1.753,6l49.346-11.798l1.82-6.875L414.212,512.096L414.212,512.096z M411.92,504.208l1.753,6l53.998-12.876   l1.752-6.876L411.92,504.208L411.92,504.208z M409.652,496.759l62.005-14.907l-1.695,6.649l-58.557,14.259l-1.777-6.304   L409.652,496.759z M569.262,396.348l-8.089,13.617l4.516,5.865l8.022-13.618L569.262,396.348z M574.856,403.695l-8.09,13.618   l4.517,5.865l8.022-13.618L574.856,403.695z M298.53,131.878l20.765-4.314v6.808l-16.793,3.169L298.53,131.878L298.53,131.878z    M293.648,124.639l4.315,6.158l21.331-4.54v-7.01L293.648,124.639z"/>
</g>
<g id="Ebene_4">
	<path style="fill-rule:evenodd;clip-rule:evenodd;fill:#B4C69B;" d="M266.848,314.846l-4.517,6.875l-36.428-93.833l5.663-5.124   L266.848,314.846L266.848,314.846z M303.137,138.837l16.158-3.163v6.412l-11.371,2.422L303.137,138.837L303.137,138.837z    M325.295,134.719l62.02-12.336v6.606l-62.02,12.135V134.719L325.295,134.719z M283.027,513.444l-61.211-98.288l4.517-6.875   l61.521,98.708L283.027,513.444z M288.622,505.894l-61.479-98.76l4.651-6.943l62.02,98.693L288.622,505.894z M261.455,323.137   l-4.652,7.012l-40.028-102.026l7.954,0.067L261.455,323.137L261.455,323.137z M272.78,305.812l-4.988,7.55l-35.055-91.613   l5.326-4.854L272.78,305.812L272.78,305.812z M369.114,489.107l-66.402-15.91l1.819,6.876l62.83,15.033L369.114,489.107   L369.114,489.107z M371.337,481.558l-1.819,5.999l-67.211-16.043l-1.82-6.876L371.337,481.558L371.337,481.558z M373.629,473.737   l-1.752,6l-71.863-17.122l-1.82-6.876L373.629,473.737L373.629,473.737z M375.922,465.918l-80.019-19.146l1.753,6.876   l76.513,18.269L375.922,465.918L375.922,465.918z M217.722,206.128l4.835,13.194l5.527-3.304l-4.038-11.076L217.722,206.128z    M209.345,207.525l5.797,16.449l5.798-3.843l-4.787-13.684L209.345,207.525z M477.166,138.857l-4.603,5.461l-10.8-2.256   l-0.183-6.205L477.166,138.857z M455.94,134.719v6.405l-62.087-12.135v-6.606L455.94,134.719L455.94,134.719z M490.052,508.186   l5.19,6.943l61.211-98.287l-4.518-6.877L490.052,508.186L490.052,508.186z M484.456,500.568l5.19,6.943l61.48-98.692l-4.651-6.943   L484.456,500.568L484.456,500.568z M510.814,309.048l35.123-91.614l-5.325-4.786l-34.719,88.917L510.814,309.048z M516.275,317.475   l36.133-94.175l-5.595-5.124l-35.055,92.355L516.275,317.475z M521.803,325.902l39.167-102.198l-8.023,0.135L517.22,318.89   L521.803,325.902z M407.471,489.107l66.401-15.91l-1.752,6.876l-62.896,15.033L407.471,489.107L407.471,489.107z M405.314,481.558   l1.752,5.999l67.266-16.272l1.819-6.876L405.314,481.558L405.314,481.558z M402.955,473.737l1.82,6l71.795-17.122l1.82-6.876   L402.955,473.737L402.955,473.737z M400.662,465.918l80.02-19.146l-1.753,6.876l-76.513,18.269L400.662,465.918L400.662,465.918z    M546.408,195.795l-4.247,11.393l5.595,3.371l5.124-13.415L546.408,195.795z M554.161,197.615l-4.853,13.752l5.865,3.774   l5.798-16.38L554.161,197.615z M446.705,149.617l16.381,5.056v-6.539l-16.381-5.056V149.617z M332.164,143.078l-16.449,5.056v6.539   l16.449-5.056V143.078z"/>
</g>
<g id="Ebene_5">
</g>
<g id="Ebene_6">
	<path style="fill-rule:evenodd;clip-rule:evenodd;fill:#D6E0CA;" d="M456.682,87.53l0.135-6.269l35.999,8.494l-0.134,6.269   L456.682,87.53L456.682,87.53z M456.413,94.879l36.201,8.628l0.068-6.472l-36-8.224L456.413,94.879z M573.643,290.038l21.37-73.615   l-6.539-4.449l-21.438,73.885L573.643,290.038z M553.015,361.158l17.797-61.345l-6.539-4.449l-16.718,57.502L553.015,361.158z    M580.992,294.689l21.301-73.412l-6.539-4.382l-21.369,73.614L580.992,294.689z M559.015,370.327l19.077-65.593l-6.539-4.449   l-17.932,61.75L559.015,370.327z M566.296,285.455l21.437-73.952l-6.539-4.383l-21.505,74.154L566.296,285.455z M546.947,351.99   l16.584-57.098l-6.539-4.45l-15.504,53.257L546.947,351.99z M558.947,280.802l21.504-74.154l-6.538-4.382l-21.572,74.356   L558.947,280.802z M540.948,342.821l15.37-52.851l-6.606-4.45l-14.225,49.077L540.948,342.821z M299.569,92.93l24.159-4.963   l0.107,6.967l-21.009,4.438L299.569,92.93z M295.681,86.08l3.286,5.782l24.803-5.235l0.033-6.534L295.681,86.08z M328.868,79.374   l58.447-12.809v6.607l-58.447,12.741V79.374L328.868,79.374z M328.733,87.26v6.607l58.582-12.809v-6.606L328.733,87.26   L328.733,87.26z M452.301,79.374l-58.447-12.809v6.607l58.447,12.741V79.374L452.301,79.374z M452.435,87.26v6.607l-58.581-12.809   v-6.606L452.435,87.26L452.435,87.26z"/>
</g>
<g id="Ebene_7">
	<path style="fill-rule:evenodd;clip-rule:evenodd;fill:#F1F6EE;" d="M456.952,72.632l0.067-6.674l35.999,8.494l-0.134,6.741   L456.952,72.632L456.952,72.632z M456.817,80.048l35.999,8.494l0.202-6.27l-36.133-8.494L456.817,80.048L456.817,80.048z    M203.211,169.437l24.672-28.583l6.202,3.707l-28.043,32.494L203.211,169.437L203.211,169.437z M233.412,134.518l16.718-19.415   l6.067,3.843l-16.718,19.347L233.412,134.518L233.412,134.518z M206.446,178.133l2.832,7.617l31.886-37.009l-6.202-3.708   L206.446,178.133L206.446,178.133z M240.355,138.765l6.134,3.842l16.584-19.28l-6.067-3.842L240.355,138.765L240.355,138.765z    M209.75,186.964l2.831,7.617l35.864-41.593l-6.27-3.708L209.75,186.964L209.75,186.964z M247.434,143.214l6.134,3.774   l16.583-19.145l-6.134-3.91L247.434,143.214L247.434,143.214z M213.121,195.998l1.617,4.382l3.91,0.067l37.145-43.144l-6.203-3.64   L213.121,195.998L213.121,195.998z M254.713,147.663l6.135,3.842l25.145-29.189l-3.977-6.27L254.713,147.663L254.713,147.663z    M220.265,200.447l9.235,0.135l33.639-38.964l-6.269-3.64L220.265,200.447L220.265,200.447z M261.927,152.112l24.74-28.718   l4.044,6.269l-22.65,26.291L261.927,152.112z M265.567,120.361l21.033-17.527l-4.18-5.057l-21.032,17.594L265.567,120.361z    M291.745,79.053l32.135-6.556l-0.068,6.269l-28.831,6.151L291.745,79.053z M287.332,71.51l3.573,6.404l32.839-6.495l0.067-7.146   L287.332,71.51z M329.07,71.418v6.606l58.245-12.74v-6.607L329.07,71.418z M452.166,71.418v6.606l-58.312-12.74v-6.607   L452.166,71.418z"/>
</g>
<g id="Ebene_8">
	<path style="fill-rule:evenodd;clip-rule:evenodd;fill:#2F4125;" d="M355.63,379.023l-2.562,6.134l-101.322-23.931l-0.741-7.078   L355.63,379.023L355.63,379.023z M299.87,358.183l-49.606-12.461l0.742,6.943l48.864,11.922V358.183z M299.948,349.901   l-50.762-12.539l0.742,6.673l50.021,12.472V349.901z M269.544,332.778l3.978-5.73l56.694,14.495l-3.102,6.134L269.544,332.778   L269.544,332.778z M279.319,318.89l52.245,13.213l0.491-6.464l-48.354-12.614L279.319,318.89L279.319,318.89z M288.555,305.88   l47.188,12.471l-3.101,6l-48.372-12.46L288.555,305.88z M289.296,304.801l4.449-6.336l45.909,12.539l-2.966,6.269L289.296,304.801   L289.296,304.801z M294.419,297.521l45.707,12.472l3.101-6.404l-44.762-11.865L294.419,297.521L294.419,297.521z M299.208,290.628   l44.558,11.948l2.562-6.404l-43.212-11.055L299.208,290.628z M303.79,284.173l4.044-5.73l40.448,10.179l-1.686,6.472   L303.79,284.173L303.79,284.173z M312.352,271.971l36.34,8.811l-0.544,6.626l-39.559-9.884L312.352,271.971z M313.16,270.893   l35.741,8.819l1.606-6.123l-33.436-8.494L313.16,270.893L313.16,270.893z M274.398,325.834l56.209,14.637l0.889-7.087   l-52.918-13.28L274.398,325.834z M385.967,288.083v6.674l-30.472-7.55l2.495-6.134L385.967,288.083L385.967,288.083z    M385.898,296.308v6.673l-33.706-8.022l2.764-6.269L385.898,296.308L385.898,296.308z M385.832,304.6l-33.976-8.495v6.674   l33.976,8.427V304.6L385.832,304.6z M385.764,312.756v6.674l-34.593-8.303l0.82-6.73L385.764,312.756L385.764,312.756z    M385.696,321.048l-35.055-8.292l-1.348,5.932l36.403,9.033V321.048L385.696,321.048z M385.629,329.272v6.674l-38.897-9.774   l2.09-6.134L385.629,329.272L385.629,329.272z M385.562,337.564l-39.098-9.842l-3.237,5.73l42.335,10.786V337.564L385.562,337.564z    M385.562,345.789l-42.402-10.718v6.673l42.402,10.787V345.789L385.562,345.789z M385.494,354.08v6.673l-42.335-10.786v-6.674   L385.494,354.08L385.494,354.08z M385.426,362.305v6.741l-42.334-10.786v-6.674L385.426,362.305L385.426,362.305z M385.157,370.529   l-42.335-10.718v6.673l42.335,10.72V370.529z M385.292,386.236v7.078l-27.1-6.606l2.494-6.135L385.292,386.236L385.292,386.236z    M304.667,246.017l4.651,5.798l-10.313,20.292l-3.775-8.562L304.667,246.017L304.667,246.017z M308.509,219.254l5.798,3.505   l-19.686,39.234l-3.235-7.415L308.509,219.254L308.509,219.254z M421.561,379.023l2.561,6.134l101.322-23.931l0.741-7.078   L421.561,379.023L421.561,379.023z M477.244,349.901l50.761-12.539l-0.742,6.673l-50.02,12.472V349.901L477.244,349.901z    M477.216,357.908l49.643-12.187l-0.674,6.943l-49.036,11.648L477.216,357.908z M507.848,332.778l-57.503,14.898l-3.211-5.926   l56.805-14.702L507.848,332.778L507.848,332.778z M498.073,318.89l-52.244,13.213l-0.406-6.619l48.599-12.015L498.073,318.89   L498.073,318.89z M493.355,312.217l-4.45-6.337l-47.257,12.471l3.232,5.771L493.355,312.217L493.355,312.217z M483.648,298.465   l-45.841,12.539l2.966,6.269l47.391-12.472L483.648,298.465z M482.878,297.292l-45.695,12.523l-2.949-6.226l44.893-11.586   L482.878,297.292z M478.389,290.915l-44.695,11.662l-2.629-6.404l43.212-11.055L478.389,290.915L478.389,290.915z M473.603,284.173   l-3.977-5.73l-40.448,10.179l1.686,6.472L473.603,284.173L473.603,284.173z M465.042,271.971l-36.336,8.764l0.378,6.619   l39.78-9.941L465.042,271.971z M464.3,270.893l-35.759,8.599l-1.655-5.902l33.437-8.494L464.3,270.893L464.3,270.893z    M502.995,325.834L446.7,340.329l-0.716-6.747l52.898-13.478L502.995,325.834z M391.185,288.189l28.044-6.943l2.495,6.135   l-30.539,7.483V288.189L391.185,288.189z M391.253,296.482v6.673l33.629-8.196l-2.688-6.163L391.253,296.482L391.253,296.482z    M391.32,304.706l33.977-8.494v6.742l-33.977,8.359V304.706L391.32,304.706z M391.387,312.931v6.673l34.687-8.398l-0.913-6.702   L391.387,312.931L391.387,312.931z M391.455,321.154l35.122-8.292l1.348,5.932l-36.47,9.034V321.154L391.455,321.154z    M391.455,329.447v6.673l38.81-9.787l-1.869-6.122L391.455,329.447L391.455,329.447z M391.522,337.671l39.167-9.775l3.303,5.73   l-42.47,10.718V337.671L391.522,337.671z M391.589,345.962l42.403-10.785v6.673l-42.403,10.786V345.962L391.589,345.962z    M391.657,354.187v6.674l42.402-10.719v-6.674L391.657,354.187L391.657,354.187z M391.725,362.479v6.673l42.402-10.786v-6.673   L391.725,362.479L391.725,362.479z M391.994,370.703l42.403-10.786v6.673l-42.403,10.786V370.703z M391.965,386.236l24.741-5.663   l2.495,6.135l-27.236,6.606V386.236L391.965,386.236z M465.244,222.76l19.685,39.234l3.235-7.415l-17.123-35.325L465.244,222.76z    M470.164,251.815l10.382,20.292l3.708-8.562l-9.371-17.528L470.164,251.815z"/>
</g>
<g id="Ebene_9">
	<path style="fill-rule:evenodd;clip-rule:evenodd;fill:#669975;" d="M392.235,419.065l31.481-7.954l2.157,6.269l-33.639,8.359   V419.065z M345.249,417.178l-0.202,6.269l-79.479-17.662l-9.398-9.208L345.249,417.178L345.249,417.178z M345.452,409.291   l-90.671-21.504l0.81,7.145l89.658,20.629L345.452,409.291L345.452,409.291z M345.721,401.336l-92.22-21.908l0.809,7.145   l91.208,21.504L345.721,401.336L345.721,401.336z M348.957,394.056l-96.4-23.123l0.809,7.146l92.963,21.91L348.957,394.056   L348.957,394.056z M352.328,386.573l-2.697,6.067l-96.94-23.19l-0.809-7.145L352.328,386.573L352.328,386.573z M385.292,394.932   v6.606l-30.404-7.617l2.765-5.797L385.292,394.932L385.292,394.932z M385.225,402.617l-31.28-7.483v6.674l31.28,7.482V402.617   L385.225,402.617z M385.157,410.841v6.674l-31.077-7.551v-6.673L385.157,410.841L385.157,410.841z M385.09,419.065l-31.415-7.954   l-2.157,6.269l33.572,8.359V419.065L385.09,419.065z M385.022,427.223v6.674l-35.661-8.832l1.685-6.269L385.022,427.223   L385.022,427.223z M384.967,435.19l-36-9.041l-2.477,6.514l38.465,9.458L384.967,435.19z M385.292,443.672l-39.387-9.667   l-2.207,5.825l41.594,10.515V443.672z M431.941,417.178l89.727-21.235l-10.045,9.842l-79.479,17.662L431.941,417.178   L431.941,417.178z M431.739,409.291l90.67-21.504l-0.809,7.145l-89.659,20.629L431.739,409.291L431.739,409.291z M431.47,401.336   l92.22-21.908l-0.809,7.145l-91.209,21.504L431.47,401.336L431.47,401.336z M428.235,394.056l96.399-23.123l-0.809,7.146   l-92.962,21.91L428.235,394.056L428.235,394.056z M424.864,386.573l2.696,6.067l96.939-23.19l0.809-7.145L424.864,386.573   L424.864,386.573z M391.965,443.672l39.235-10.247l2.494,6.404l-41.729,10.515V443.672L391.965,443.672z M392.304,435.448v6.673   l38.492-9.64l-2.157-6.404L392.304,435.448L392.304,435.448z M392.304,427.223v6.674l35.661-8.832l-1.618-6.269L392.304,427.223   L392.304,427.223z M391.965,394.932v6.606l30.472-7.617l-2.765-5.797L391.965,394.932L391.965,394.932z M392.101,402.617   l31.28-7.483v6.674l-31.28,7.482V402.617L392.101,402.617z M392.168,410.841v6.674l31.145-7.551v-6.673L392.168,410.841   L392.168,410.841z M317.308,197.811l-26.73,54.813l-3.573-8.292l26.021-53.997L317.308,197.811z M312.486,172.874l-29.932,60.672   l3.708,9.169l31.415-64.784L312.486,172.874L312.486,172.874z M461.806,177.931l31.414,64.784l3.775-9.169l-29.931-60.672   L461.806,177.931z M462.412,197.345l26.562,55.279l3.573-8.292l-26.089-53.997L462.412,197.345z"/>
</g>
<g id="Ebene_10">
	<path style="fill-rule:evenodd;clip-rule:evenodd;fill:#AFD18E;" d="M294.622,155.617l-24.471,49.75l3.573,8.224l26.089-52.986   L294.622,155.617L294.622,155.617z M288.488,149.685l-23.055,44.695l4.179,9.64l23.797-49.616L288.488,149.685z M490.995,149.685   l23.123,44.695l-4.18,9.64l-23.797-49.616L490.995,149.685z M484.861,155.617l24.471,49.75l-3.506,8.224l-26.088-52.986   L484.861,155.617z M278.241,297.454l-4.651,7.146l-34.516-88.648l5.797-5.259L278.241,297.454L278.241,297.454z M283.633,289.162   l-4.516,6.943l-33.167-86.355l5.393-4.921L283.633,289.162z M499.556,291.791l33.101-86.356l-5.394-4.854l-32.223,84.266   L499.556,291.791z M505.084,300.284l34.448-88.647l-5.798-5.257l-33.302,86.76L505.084,300.284z"/>
</g>
<g id="Ebene_11">
	<path style="fill-rule:evenodd;clip-rule:evenodd;fill:#D5E1E5;" d="M219.12,283.702l-29.123-67.818l5.124-4.854l30.134,70.042   L219.12,283.702z M206.311,256.736l-17.459-39.773l-5.124,4.786l16.449,37.616L206.311,256.736z M622.383,234.693l5.864,3.909   l-9.101,32.56l-9.033,7.281L622.383,234.693z M621.034,269.612l9.371-7.483l4.921-18.808l-6-3.708L621.034,269.612z    M598.586,287.679l9.168-7.416l13.28-46.515l-6-3.775L598.586,287.679z"/>
</g>
<g id="Text">
	<g id="Points">
		<path style="fill-rule:evenodd;clip-rule:evenodd;fill:#FFFFFF;" d="M227.237,182.507c5.888,0,10.693-4.746,10.693-10.633    c0-5.827-4.806-10.633-10.693-10.633c-5.827,0-10.633,4.806-10.633,10.633C216.604,177.761,221.41,182.507,227.237,182.507z"/>
		<path style="fill-rule:evenodd;clip-rule:evenodd;fill:#FFFFFF;" d="M357.944,125.255c5.827,0,10.633-4.806,10.633-10.693    c0-5.828-4.806-10.633-10.633-10.633s-10.573,4.806-10.573,10.633C347.371,120.449,352.117,125.255,357.944,125.255z"/>
		<path style="fill-rule:evenodd;clip-rule:evenodd;fill:#FFFFFF;" d="M422.762,125.067c5.888,0,10.693-4.806,10.693-10.634    c0-5.887-4.806-10.693-10.693-10.693c-5.827,0-10.633,4.806-10.633,10.693C412.129,120.261,416.935,125.067,422.762,125.067z"/>
		<path style="fill-rule:evenodd;clip-rule:evenodd;fill:#FFFFFF;" d="M579.306,254.948c5.827,0,10.633-4.746,10.633-10.634    c0-5.827-4.806-10.633-10.633-10.633c-5.888,0-10.634,4.806-10.634,10.633C568.672,250.202,573.418,254.948,579.306,254.948z"/>
		<path style="fill-rule:evenodd;clip-rule:evenodd;fill:#FFFFFF;" d="M554.323,330.306c5.827,0,10.633-4.746,10.633-10.634    c0-5.827-4.806-10.633-10.633-10.633c-5.888,0-10.693,4.806-10.693,10.633C543.63,325.56,548.436,330.306,554.323,330.306z"/>
		<path style="fill-rule:evenodd;clip-rule:evenodd;fill:#FFFFFF;" d="M435.608,487.1c5.827,0,10.633-4.746,10.633-10.633    c0-5.887-4.806-10.633-10.633-10.633c-5.888,0-10.634,4.746-10.634,10.633C424.975,482.354,429.721,487.1,435.608,487.1z"/>
		<path style="fill-rule:evenodd;clip-rule:evenodd;fill:#FFFFFF;" d="M328.382,483.048c5.887,0,10.633-4.807,10.633-10.634    c0-5.888-4.746-10.633-10.633-10.633s-10.633,4.745-10.633,10.633C317.749,478.241,322.495,483.048,328.382,483.048z"/>
		<path style="fill-rule:evenodd;clip-rule:evenodd;fill:#FFFFFF;" d="M525.278,268.106c5.887,0,10.693-4.806,10.693-10.633    c0-5.887-4.806-10.633-10.693-10.633c-5.827,0-10.633,4.746-10.633,10.633C514.645,263.3,519.451,268.106,525.278,268.106z"/>
		<path style="fill-rule:evenodd;clip-rule:evenodd;fill:#FFFFFF;" d="M475.12,398.282c5.888,0,10.633-4.806,10.633-10.633    c0-5.888-4.746-10.634-10.633-10.634c-5.827,0-10.633,4.746-10.633,10.634C464.487,393.476,469.293,398.282,475.12,398.282z"/>
		<path style="fill-rule:evenodd;clip-rule:evenodd;fill:#FFFFFF;" d="M287.673,397.784c5.888,0,10.693-4.806,10.693-10.693    c0-5.828-4.806-10.633-10.693-10.633c-5.827,0-10.633,4.806-10.633,10.633C277.04,392.978,281.846,397.784,287.673,397.784z"/>
		<path style="fill-rule:evenodd;clip-rule:evenodd;fill:#FFFFFF;" d="M254.165,267.902c5.888,0,10.693-4.746,10.693-10.633    c0-5.827-4.806-10.633-10.693-10.633c-5.827,0-10.633,4.806-10.633,10.633C243.532,263.156,248.338,267.902,254.165,267.902z"/>
		<path style="fill-rule:evenodd;clip-rule:evenodd;fill:#FFFFFF;" d="M528.005,475.446c5.887,0,10.633-4.746,10.633-10.634    c0-5.827-4.746-10.633-10.633-10.633s-10.634,4.806-10.634,10.633C517.372,470.7,522.118,475.446,528.005,475.446z"/>
		<path style="fill-rule:evenodd;clip-rule:evenodd;fill:#FFFFFF;" d="M454.093,308.396c5.828,0,10.633-4.746,10.633-10.633    c0-5.827-4.806-10.633-10.633-10.633c-5.887,0-10.633,4.806-10.633,10.633C443.46,303.651,448.206,308.396,454.093,308.396z"/>
		<path style="fill-rule:evenodd;clip-rule:evenodd;fill:#FFFFFF;" d="M491.264,196.281c5.888,0,10.634-4.746,10.634-10.633    s-4.746-10.633-10.634-10.633c-5.827,0-10.633,4.746-10.633,10.633S485.437,196.281,491.264,196.281z"/>
		<path style="fill-rule:evenodd;clip-rule:evenodd;fill:#FFFFFF;" d="M251.462,475.568c5.827,0,10.633-4.806,10.633-10.633    c0-5.887-4.806-10.693-10.633-10.693c-5.888,0-10.693,4.806-10.693,10.693C240.769,470.762,245.575,475.568,251.462,475.568z"/>
		<path style="fill-rule:evenodd;clip-rule:evenodd;fill:#FFFFFF;" d="M313.451,317.638c5.887,0,10.633-4.746,10.633-10.633    c0-5.828-4.746-10.633-10.633-10.633s-10.634,4.806-10.634,10.633C302.817,312.892,307.564,317.638,313.451,317.638z"/>
		<path style="fill-rule:evenodd;clip-rule:evenodd;fill:#FFFFFF;" d="M287.704,199.12c5.887,0,10.633-4.806,10.633-10.693    c0-5.827-4.746-10.633-10.633-10.633c-5.827,0-10.633,4.806-10.633,10.633C277.07,194.314,281.876,199.12,287.704,199.12z"/>
		<path style="fill-rule:evenodd;clip-rule:evenodd;fill:#FFFFFF;" d="M356.857,87.315c5.888,0,10.693-4.746,10.693-10.633    c0-5.827-4.806-10.633-10.693-10.633c-5.827,0-10.633,4.806-10.633,10.633C346.224,82.569,351.03,87.315,356.857,87.315z"/>
		<path style="fill-rule:evenodd;clip-rule:evenodd;fill:#FFFFFF;" d="M420.97,86.315c5.888,0,10.693-4.746,10.693-10.633    c0-5.827-4.806-10.633-10.693-10.633c-5.827,0-10.633,4.806-10.633,10.633C410.337,81.569,415.143,86.315,420.97,86.315z"/>
		<text transform="matrix(1 0 0 1 414.6646 82.2935)" style="font-family:'Arial-BoldMT'; font-size:18;">K</text>
	</g>
	<g>
		<text transform="matrix(1 0 0 1 327.7026 276.4199)" style="font-family:'Arial-BoldMT'; font-size:18;">B</text>
	</g>
	<g>
		<text transform="matrix(1 0 0 1 524.0718 276.6162)" style="font-family:'Arial-BoldMT'; font-size:18;">B</text>
	</g>
	<g>
		<text transform="matrix(1 0 0 1 385.8823 167.2402)" style="font-family:'Arial-BoldMT'; font-size:18;">C</text>
	</g>
	<g>
		<text transform="matrix(1 0 0 1 454.5361 166.4839)" style="font-family:'Arial-BoldMT'; font-size:18;">C</text>
	</g>
	<g>
		<text transform="matrix(1 0 0 1 399.4482 444.0239)" style="font-family:'Arial-BoldMT'; font-size:18;">D</text>
	</g>
	<g>
		<text transform="matrix(1 0 0 1 448.6401 444.0239)" style="font-family:'Arial-BoldMT'; font-size:18;">D</text>
	</g>
	<g>
		<text transform="matrix(1 0 0 1 323.4746 401.8115)" style="font-family:'Arial-BoldMT'; font-size:18;">E</text>
	</g>
	<g>
		<text transform="matrix(1 0 0 1 518.0933 401.0566)" style="font-family:'Arial-BoldMT'; font-size:18;">E</text>
	</g>
	<g>
		<text transform="matrix(1 0 0 1 251.7759 276.6479)" style="font-family:'Arial-BoldMT'; font-size:18;">F</text>
	</g>
	<g>
		<text transform="matrix(1 0 0 1 584.9009 276.8438)" style="font-family:'Arial-BoldMT'; font-size:18;">F</text>
	</g>
	<g>
		<text transform="matrix(1 0 0 1 594.7588 205.146)" style="font-family:'Arial-BoldMT'; font-size:18;">G</text>
	</g>
	<g>
		<text transform="matrix(1 0 0 1 270.6582 145.6479)" style="font-family:'Arial-BoldMT'; font-size:18;">G</text>
	</g>
	<g>
		<text transform="matrix(1 0 0 1 570.0239 146.8618)" style="font-family:'Arial-BoldMT'; font-size:18;">G</text>
	</g>
	<g>
		<text transform="matrix(0.9998 0.0216 -0.0216 0.9998 502.3682 102.9077)" style="font-family:'Arial-BoldMT'; font-size:18;">H</text>
	</g>
	<g>
		<text transform="matrix(1 0 0 1 421.8545 100.188)" style="font-family:'Arial-BoldMT'; font-size:18;">H</text>
	</g>
	<text transform="matrix(1 0 0 1 350.5518 83.2935)" style="font-family:'Arial-BoldMT'; font-size:18;">K</text>
	<g>
		<text transform="matrix(1 0 0 1 382.1758 239.8242)" style="font-family:'ArialMT'; font-size:15.552;">ORCHESTER</text>
	</g>
	<g>
		<text transform="matrix(1 0 0 1 399.96 257.248)" style="font-family:'ArialMT'; font-size:15.552;">PODIUM</text>
	</g>
	<g>
		<text transform="matrix(1 0 0 1 449.6479 354.0078)" style="font-family:'Arial-BoldMT'; font-size:18;">A</text>
	</g>
	<g>
		<text transform="matrix(1 0 0 1 401.104 353.2881)" style="font-family:'Arial-BoldMT'; font-size:18;">A</text>
	</g>
</g>
</svg>
